<?xml version="1.0" encoding="UTF-8" standalone="no"?>
<svg
   xmlns:dc="http://purl.org/dc/elements/1.1/"
   xmlns:cc="http://creativecommons.org/ns#"
   xmlns:rdf="http://www.w3.org/1999/02/22-rdf-syntax-ns#"
   xmlns:svg="http://www.w3.org/2000/svg"
   xmlns="http://www.w3.org/2000/svg"
   version="1.1"
   id="svg5337"
   viewBox="0 0 60.000001 60.000001"
   height="60"
   width="60">
  <defs
     id="defs5339" />
  <metadata
     id="metadata5342">
    <rdf:RDF>
      <cc:Work
         rdf:about="">
        <dc:format>image/svg+xml</dc:format>
        <dc:type
           rdf:resource="http://purl.org/dc/dcmitype/StillImage" />
        <dc:title></dc:title>
      </cc:Work>
    </rdf:RDF>
  </metadata>
  <g
     transform="translate(0,-992.36216)"
     id="layer1">
    <path
      style="opacity:1;fill-opacity:1;stroke:#000000;stroke-width:0.39887521;stroke-linecap:round;stroke-linejoin:miter;stroke-miterlimit:4;stroke-dasharray:none;stroke-opacity:1"
       d="m 31.348881,1006.9878 a 0.80031413,0.80031413 0 0 1 -0.800316,0.8003 0.80031413,0.80031413 0 0 1 -0.800313,-0.8003 0.80031413,0.80031413 0 0 1 0.800313,-0.8004 0.80031413,0.80031413 0 0 1 0.800316,0.8004 z m 5.833257,-6.834 -1.24762,1.5147 -13.723872,1.1588 -0.623813,1.2477 1.871437,27.4475 -5.881656,3.2082 -2.04967,-2.0495 1.604086,5.7924 2.495254,0.1791 13.100056,5.7035 1.51497,1.2477 6.416355,-1.8717 1.336742,-0.6237 -0.623811,-1.6039 -7.040167,1.8714 -1.514975,0.8912 -13.367402,-5.7034 -1.960558,-3.8321 5.881661,-3.2082 4.634032,1.6932 6.416356,10.1593 6.861937,-1.9605 4.812267,-10.6048 0.08913,-2.8517 -3.831988,-11.2287 -3.119062,-13.1894 0.267345,-2.495 -0.178235,2.4061 -3.297296,-1.6934 3.119063,1.7823 3.297292,13.3676 -14.436797,16.1301 -4.723152,-1.426 -1.782318,-27.1804 0.891161,-1.515 13.634751,-1.2476 3.297296,1.7824 0.267349,-2.4061 z m -14.258564,1.1587 -9.268068,21.9222 3.208175,15.1499 1.69321,2.4949 12.208895,5.3472 3.475524,-0.4456 6.416355,-1.9605 4.901385,-3.2082 0.712927,-10.7828 -0.980275,-15.3282 -4.010222,-11.8525 -1.514975,-1.5148 -2.406131,-0.9803 -6.594588,-1.5152 z"
       id="path6017" />
  </g>
</svg>
