<?xml version="1.0" encoding="UTF-8" standalone="no"?>
<!-- Created with Inkscape (http://www.inkscape.org/) -->

<svg
   xmlns:dc="http://purl.org/dc/elements/1.1/"
   xmlns:cc="http://creativecommons.org/ns#"
   xmlns:rdf="http://www.w3.org/1999/02/22-rdf-syntax-ns#"
   xmlns:svg="http://www.w3.org/2000/svg"
   xmlns="http://www.w3.org/2000/svg"
   xmlns:sodipodi="http://sodipodi.sourceforge.net/DTD/sodipodi-0.dtd"
   xmlns:inkscape="http://www.inkscape.org/namespaces/inkscape"
   width="290.80002"
   height="32"
   viewBox="0 0 290.80002 32.000001"
   id="svg2"
   version="1.1"
   inkscape:version="0.91 r13725"
   sodipodi:docname="logo.svg">
  <defs
     id="defs4" />
  <sodipodi:namedview
     id="base"
     pagecolor="#0e1a22"
     bordercolor="#666666"
     borderopacity="1.0"
     inkscape:pageopacity="0"
     inkscape:pageshadow="2"
     inkscape:zoom="1.4"
     inkscape:cx="113.82334"
     inkscape:cy="-65.928691"
     inkscape:document-units="px"
     inkscape:current-layer="layer1"
     showgrid="false"
     units="px"
     fit-margin-top="0"
     fit-margin-left="0"
     fit-margin-right="0"
     fit-margin-bottom="0"
     inkscape:window-width="1280"
     inkscape:window-height="700"
     inkscape:window-x="0"
     inkscape:window-y="1"
     inkscape:window-maximized="1" />
  <metadata
     id="metadata7">
    <rdf:RDF>
      <cc:Work
         rdf:about="">
        <dc:format>image/svg+xml</dc:format>
        <dc:type
           rdf:resource="http://purl.org/dc/dcmitype/StillImage" />
        <dc:title></dc:title>
      </cc:Work>
    </rdf:RDF>
  </metadata>
  <g
     inkscape:label="Layer 1"
     inkscape:groupmode="layer"
     id="layer1"
     transform="translate(-288.57144,-112.47438)">
    <g
       style="font-style:normal;font-weight:normal;font-size:40.9600029px;line-height:125%;font-family:sans-serif;letter-spacing:0px;word-spacing:0px;fill:#869aa7;fill-opacity:1;stroke:none;stroke-width:1px;stroke-linecap:butt;stroke-linejoin:miter;stroke-opacity:1"
       id="text4136">
      <path
         d="m 298.33144,112.87438 1.2,0 q 6.34,0 9.12,4.4 0.88,2.34 0.88,6.56 l 0,2.88 -8.88,0 0,-5.04 q 0,-3.52 -0.8,-3.52 -0.14,-0.08 -0.32,-0.08 l -0.72,0 q -1.28,0 -1.28,2.4 l 0,16.4 q 0,2.08 0.8,2.32 0.44,0.08 0.72,0.08 l 0.24,0 q 1.36,0 1.36,-2.72 l 0,-4.88 8.88,0 0,1.28 q 0,6.36 -1.52,7.92 -3.1,3.6 -8.48,3.6 l -0.88,0 q -5.76,0 -8.48,-3.36 -1.6,-1.44 -1.6,-10.48 l 0,-3.2 q 0,-8.88 0.72,-9.68 1.34,-2.82 4.88,-4.16 2.14,-0.72 4.16,-0.72 z"
         style="font-style:normal;font-variant:normal;font-weight:normal;font-stretch:normal;font-family:'Call Of Ops Duty';-inkscape-font-specification:'Call Of Ops Duty';fill:#869aa7;fill-opacity:1"
         id="path4160" />
      <path
         d="m 316.01144,113.29438 12.72,0 q 0.2,0 0.48,2.56 0.32,1.32 4.64,27.92 l -8.16,0 q -0.2,0 -0.4,-2.64 -0.08,0 -0.4,-3.04 l -2.96,0 0,-0.08 q 0.24,-2.94 0.56,-5.04 l 1.76,0 q 0,-0.32 -1.52,-12.64 l -0.08,0 q 0,0.6 -2.8,23.44 l -8.32,0 q 0.02,-0.36 4.48,-30.48 z"
         style="font-style:normal;font-variant:normal;font-weight:normal;font-stretch:normal;font-family:'Call Of Ops Duty';-inkscape-font-specification:'Call Of Ops Duty';fill:#869aa7;fill-opacity:1"
         id="path4162" />
      <path
         d="m 335.77144,113.37438 8.80001,0 0,24.24 5.36,0 0,6.16 -14.08001,0 -0.16,-0.08 0.08,-0.16 0,-30.16 z"
         style="font-style:normal;font-variant:normal;font-weight:normal;font-stretch:normal;font-family:'Call Of Ops Duty';-inkscape-font-specification:'Call Of Ops Duty';fill:#869aa7;fill-opacity:1"
         id="path4164" />
      <path
         d="m 352.01145,113.37438 8.8,0 0,24.24 5.36,0 0,6.16 -14.08,0 -0.16,-0.08 0.08,-0.16 0,-30.16 z"
         style="font-style:normal;font-variant:normal;font-weight:normal;font-stretch:normal;font-family:'Call Of Ops Duty';-inkscape-font-specification:'Call Of Ops Duty';fill:#869aa7;fill-opacity:1"
         id="path4166" />
      <path
         d="m 388.33145,112.63438 0.64,0 q 6.76,0 9.2,5.2 0.64,1.22 0.64,8 l 0,5.44 q 0,7.82 -1.04,8.88 -2.78,4.32 -8.48,4.32 l -1.44,0 q -5.32,0 -8.24,-3.84 -1.28,-1.66 -1.28,-6.96 l 0,-9.6 q 0,-5.58 0.96,-7.04 2.68,-4.4 9.04,-4.4 z m -1.12,23.44 q 0,3.12 0.72,3.12 l 0.48,0.08 0.32,0 q 1.12,0 1.12,-2.4 0.08,-0.52 0.08,-2.48 l 0,-12.48 q 0,-3.76 -0.48,-3.76 0,-0.24 -0.88,-0.32 -1.36,0 -1.36,2.48 l 0,15.76 z"
         style="font-style:normal;font-variant:normal;font-weight:normal;font-stretch:normal;font-family:'Call Of Ops Duty';-inkscape-font-specification:'Call Of Ops Duty';fill:#869aa7;fill-opacity:1"
         id="path4168" />
      <path
         d="m 400.57145,113.21438 14.96,0 0,6.16 -6.08,0 0,5.76 5.44,0 0,5.68 q 0,0.16 -0.16,0.16 l -5.28,0 0,12.8 -8.88,0 0,-30.56 z"
         style="font-style:normal;font-variant:normal;font-weight:normal;font-stretch:normal;font-family:'Call Of Ops Duty';-inkscape-font-specification:'Call Of Ops Duty';fill:#869aa7;fill-opacity:1"
         id="path4170" />
      <path
         d="m 427.69145,113.21438 9.6,0 q 6.36,0 8.16,2 2.16,1.9 2.16,5.84 l 0,1.44 q 0,3.4 -2.56,4.24 -1.46,0.48 -1.84,0.48 l 0,0.08 q 2.04,0.36 3.52,1.52 1.52,1.48 1.52,4.64 l 0,3.68 q 0,4.72 -2.72,5.92 -1.78,0.72 -5.76,0.72 l -12.08,0 0,-30.56 z m 8.88,5.28 0,0.08 0,19.92 0.16,0 q 2.48,0 2.48,-1.28 0.16,0 0.16,-1.36 l 0,-3.28 q 0,-2.24 -0.8,-2.24 0,-0.1 -0.88,-0.24 l 0,-4.96 0.24,0 q 1.36,0 1.36,-2 0.08,-0.18 0.08,-1.36 l 0,-0.56 q 0,-2.64 -1.6,-2.64 -0.34,-0.08 -1.2,-0.08 z"
         style="font-style:normal;font-variant:normal;font-weight:normal;font-stretch:normal;font-family:'Call Of Ops Duty';-inkscape-font-specification:'Call Of Ops Duty';fill:#869aa7;fill-opacity:1"
         id="path4172" />
      <path
         d="m 450.25145,113.21438 14.72,0 0,6.16 -5.84,0 0,5.76 5.44,0 0,5.84 -5.44,0 0,6.64 6.4,0 0,6.16 -15.28,0 0,-30.56 z"
         style="font-style:normal;font-variant:normal;font-weight:normal;font-stretch:normal;font-family:'Call Of Ops Duty';-inkscape-font-specification:'Call Of Ops Duty';fill:#869aa7;fill-opacity:1"
         id="path4174" />
      <path
         d="m 472.33146,113.29438 12.72,0 q 0.2,0 0.48,2.56 0.32,1.32 4.64,27.92 l -8.16,0 q -0.2,0 -0.4,-2.64 -0.08,0 -0.4,-3.04 l -2.96,0 0,-0.08 q 0.24,-2.94 0.56,-5.04 l 1.76,0 q 0,-0.32 -1.52,-12.64 l -0.08,0 q 0,0.6 -2.8,23.44 l -8.32,0 q 0.02,-0.36 4.48,-30.48 z"
         style="font-style:normal;font-variant:normal;font-weight:normal;font-stretch:normal;font-family:'Call Of Ops Duty';-inkscape-font-specification:'Call Of Ops Duty';fill:#869aa7;fill-opacity:1"
         id="path4176" />
      <path
         d="m 501.77146,112.87438 1.2,0 q 6.34,0 9.12,4.4 0.88,2.34 0.88,6.56 l 0,2.88 -8.88,0 0,-5.04 q 0,-3.52 -0.8,-3.52 -0.14,-0.08 -0.32,-0.08 l -0.72,0 q -1.28,0 -1.28,2.4 l 0,16.4 q 0,2.08 0.8,2.32 0.44,0.08 0.72,0.08 l 0.24,0 q 1.36,0 1.36,-2.72 l 0,-4.88 8.88,0 0,1.28 q 0,6.36 -1.52,7.92 -3.1,3.6 -8.48,3.6 l -0.88,0 q -5.76,0 -8.48,-3.36 -1.6,-1.44 -1.6,-10.48 l 0,-3.2 q 0,-8.88 0.72,-9.68 1.34,-2.82 4.88,-4.16 2.14,-0.72 4.16,-0.72 z"
         style="font-style:normal;font-variant:normal;font-weight:normal;font-stretch:normal;font-family:'Call Of Ops Duty';-inkscape-font-specification:'Call Of Ops Duty';fill:#869aa7;fill-opacity:1"
         id="path4178" />
      <path
         d="m 524.97145,112.63438 0.64,0 q 6.76,0 9.2,5.2 0.64,1.22 0.64,8 l 0,5.44 q 0,7.82 -1.04,8.88 -2.78,4.32 -8.48,4.32 l -1.44,0 q -5.32,0 -8.24,-3.84 -1.28,-1.66 -1.28,-6.96 l 0,-9.6 q 0,-5.58 0.96,-7.04 2.68,-4.4 9.04,-4.4 z m -1.12,23.44 q 0,3.12 0.72,3.12 l 0.48,0.08 0.32,0 q 1.12,0 1.12,-2.4 0.08,-0.52 0.08,-2.48 l 0,-12.48 q 0,-3.76 -0.48,-3.76 0,-0.24 -0.88,-0.32 -1.36,0 -1.36,2.48 l 0,15.76 z"
         style="font-style:normal;font-variant:normal;font-weight:normal;font-stretch:normal;font-family:'Call Of Ops Duty';-inkscape-font-specification:'Call Of Ops Duty';fill:#869aa7;fill-opacity:1"
         id="path4180" />
      <path
         d="m 537.21146,113.21438 7.44,0 4.8,13.6 0.08,0 0,-13.6 7.28,0 q 0.16,0.02 0.16,0.16 l 0,30.4 -7.84,0 -4.4,-13.44 -0.08,0 0,13.44 -7.44,0 0,-30.56 z"
         style="font-style:normal;font-variant:normal;font-weight:normal;font-stretch:normal;font-family:'Call Of Ops Duty';-inkscape-font-specification:'Call Of Ops Duty';fill:#869aa7;fill-opacity:1"
         id="path4182" />
      <path
         d="m 568.25147,112.47438 0.96,0 q 5.36,0 8.16,2.8 1.28,1.42 1.28,5.44 l 0,1.68 -8.24,0 0,-1.68 q 0,-2.8 -0.56,-2.8 0,-0.2 -0.96,-0.24 -1.2,0 -1.36,1.92 l 0,0.96 q 0,2.08 1.84,2.96 4.58,2.56 6.32,3.84 2.28,1.46 3.12,3.84 0.56,1.96 0.56,3.84 l 0,1.52 q 0,4.2 -2.16,5.6 -3,2.16 -6.88,2.16 l -1.44,0 q -5.26,0 -8.16,-3.36 -1.28,-1.9 -1.28,-5.92 l 0,-2.32 8.24,0 0,2.8 q 0,3.28 0.56,3.28 0,0.26 1.04,0.32 l 0.08,0 q 1.6,0 1.6,-2.48 0,-3.38 -1.6,-4.08 -1.56,-1.12 -6.88,-4.32 -3.36,-2.32 -3.36,-7.12 0,-6.06 3.68,-7.44 2.38,-1.2 5.44,-1.2 z"
         style="font-style:normal;font-variant:normal;font-weight:normal;font-stretch:normal;font-family:'Call Of Ops Duty';-inkscape-font-specification:'Call Of Ops Duty';fill:#869aa7;fill-opacity:1"
         id="path4184" />
    </g>
  </g>
</svg>
