<?xml version="1.0" encoding="UTF-8" standalone="no"?>
<svg
   xmlns:dc="http://purl.org/dc/elements/1.1/"
   xmlns:cc="http://creativecommons.org/ns#"
   xmlns:rdf="http://www.w3.org/1999/02/22-rdf-syntax-ns#"
   xmlns:svg="http://www.w3.org/2000/svg"
   xmlns="http://www.w3.org/2000/svg"
   width="64"
   height="64"
   viewBox="0 0 64 64"
   id="svg2"
   version="1.1">
  <metadata
     id="metadata10">
    <rdf:RDF>
      <cc:Work
         rdf:about="">
        <dc:format>image/svg+xml</dc:format>
        <dc:type
           rdf:resource="http://purl.org/dc/dcmitype/StillImage" />
        <dc:title></dc:title>
      </cc:Work>
    </rdf:RDF>
  </metadata>
  <defs
     id="defs8" />
  <path
     d="M 32,0 C 14.328,0 0,14.328 0,32 0,49.672 14.328,64 32,64 49.672,64 64,49.672 64,32 64,14.328 49.672,0 32,0 Z m 20.674667,48.813333 c -0.696,-1.562666 -2.104,-2.642666 -4.989334,-3.309333 -6.114666,-1.410667 -11.808,-2.648 -9.048,-7.853333 C 47.024,21.805333 40.858667,13.333333 32,13.333333 c -9.034667,0 -15.050667,8.797334 -6.637333,24.317334 2.842666,5.237333 -3.061334,6.472 -9.048,7.853333 C 13.424,46.170667 12.026667,47.258667 11.336,48.826667 7.5893333,44.232 5.3333333,38.376 5.3333333,32 5.3333333,17.296 17.296,5.333333 32,5.333333 46.704,5.333333 58.666667,17.296 58.666667,32 c 0,6.370667 -2.253334,12.221333 -5.992,16.813333 z"
     id="path4"
     style="fill-opacity:1" />
</svg>
